<?xml version="1.0" standalone="no"?>
<!DOCTYPE svg PUBLIC "-//W3C//DTD SVG 1.1//EN" "http://www.w3.org/Graphics/SVG/1.1/DTD/svg11.dtd" >
<!--
2013-9-30: Created.
-->
<svg>
<metadata>
Created by iconfont
</metadata>
<defs>

<font id="shop_suning" horiz-adv-x="1024" >
  <font-face
    font-family="shop_suning"
    font-weight="500"
    font-stretch="normal"
    units-per-em="1024"
    ascent="896"
    descent="-128"
  />
    <missing-glyph />
    
    <glyph glyph-name="iconfont08" unicode="&#58892;" d="M298.944 83.968m-64 0a1 1 0 1 0 128 0 1 1 0 1 0-128 0ZM654.848 83.968m-64 0a1 1 0 1 0 128 0 1 1 0 1 0-128 0ZM928 614.336c-30.656 17.664-69.76 7.168-87.424-23.424L658.56 320 384 320 384 704c0 35.392-28.608 64-64 64L128 768C92.608 768 64 739.392 64 704s28.608-64 64-64l128 0 0-384c0-35.392 28.608-64 64-64l358.656 0c40.192 0 61.376 22.656 88.704 60.928l184.064 273.92C969.152 557.504 958.656 596.608 928 614.336z"  horiz-adv-x="1024" />

    
    <glyph glyph-name="tesefuwu" unicode="&#58911;" d="M512.537805 891.906765C232.773837 891.906765 5.172019 664.314266 5.172019 384.560742c0-279.736115 227.601818-507.32759 507.365786-507.32759 279.76704 0 507.368858 227.591475 507.368858 507.32759C1019.90656 664.314266 792.303718 891.906765 512.537805 891.906765zM512.537805-70.843187c-251.129651 0-455.438029 204.298957-455.438029 455.404032 0 251.120333 204.307354 455.422464 455.438029 455.422464 251.130675 0 455.443149-204.299981 455.443149-455.422464C967.979827 133.456794 763.668378-70.843187 512.537805-70.843187zM490.074214 368.368026c-2.18071 14.180966-15.551795 23.882957-29.614694 21.702246l-50.692608-7.808819L409.766912 491.654882l51.927754 0c14.33303 0 25.964339 11.629875 25.964339 25.962291 0 14.33344-11.631411 25.962291-25.964339 25.962291l-51.927754 0 0 86.539982c0 14.334464-11.619123 25.962291-25.962291 25.962291-14.344294 0-25.964339-11.627827-25.964339-25.962291l0-86.539982-34.615774 0 0 51.924603c0 14.33344-11.621171 25.962291-25.964339 25.962291-14.342246 0-25.963315-11.628851-25.963315-25.962291l0-61.676711c0-19.808154-11.89335-31.961907-20.418867-31.961907-14.34327 0-25.964339-11.628851-25.964339-25.962291 0-14.332416 11.621171-25.962291 25.964339-25.962291 26.58048 0 49.602662 16.885555 62.177587 41.715098l44.784784 0 0-117.371174-107.156787-16.496742c-14.174413-2.18071-23.894118-15.431475-21.712384-29.612442 1.968947-12.829184 13.031322-22.00617 25.624678-22.00617 1.310925 0 2.646426 0.101274 3.982848 0.303923l99.263795 15.280026 0-176.258353c0-14.335488 11.620147-25.961267 25.964339-25.961267 14.34327 0 25.962291 11.625779 25.962291 25.961267L409.769138 329.729979l58.605056 9.025536C482.536243 340.936192 492.255027 354.187981 490.074214 368.368026zM755.944141 491.654861 652.091754 491.654861l0 51.924603 86.543528 0c14.334054 0 25.963315 11.629875 25.963315 25.962291 0 14.33344-11.629363 25.962291-25.963315 25.962291l-86.543528 0 0 69.231781c0 14.334464-11.629363 25.962291-25.962291 25.962291-14.335078 0-25.963315-11.626803-25.963315-25.962291l0-69.231781-69.235641 0c-14.335078 0-25.963315-11.628851-25.963315-25.962291 0-14.332416 11.628339-25.962291 25.963315-25.962291l69.235641 0 0-51.924603-86.545574 0c-14.332006 0-25.96137-11.628851-25.96137-25.961267 0-14.33344 11.629363-25.963315 25.96137-25.963315l242.32372 0c14.335078 0 25.963315 11.629875 25.963315 25.963315C781.907558 480.02601 770.278195 491.654861 755.944141 491.654861zM755.944141 370.498458l-51.924684 0 0 34.616402c0 14.33344-11.629363 25.962291-25.964339 25.962291-14.33303 0-25.962291-11.628851-25.962291-25.962291l0-34.616402L513.619448 370.498458c-14.332006 0-25.96137-11.628851-25.96137-25.963315 0-14.332416 11.629363-25.961267 25.96137-25.961267l138.471282 0 0-123.607202c0-23.343616 0-33.01079-48.006246-33.01079-14.33303 0-25.960346-11.630899-25.960346-25.962291 0-14.334464 11.627315-25.963315 25.960346-25.963315 29.903258 0 99.932979 0 99.932979 84.936499L704.017463 318.572872l51.924684 0c14.335078 0 25.963315 11.628851 25.963315 25.961267C781.907558 358.868582 770.278195 370.498458 755.944141 370.498458zM539.583795 292.61056c-14.33303 0-25.964339-11.628851-25.964339-25.961267l0-51.924603c0-14.334464 11.631411-25.963315 25.964339-25.963315 14.335078 0 25.963315 11.628851 25.963315 25.963315l0 51.924603C565.547213 280.981709 553.918874 292.61056 539.583795 292.61056z"  horiz-adv-x="1024" />

    
    <glyph glyph-name="bangzhuzhongxin" unicode="&#58912;" d="M535.582044 91.479298c-5.046936 5.076612-10.849071 9.077731-17.346029 12.03815-6.380301 2.900044-13.08192 4.177128-20.072111 4.177128s-13.720462-1.277084-20.073134-4.177128c-6.555286-2.960419-12.299093-6.961538-17.374681-12.03815-5.046936-5.106288-9.050102-10.937075-12.008474-17.492361-2.900044-6.439653-4.147452-13.227229-4.147452-20.304401 0-7.049542 1.247408-13.836095 4.147452-20.275748 2.959396-6.585986 6.961538-12.415749 12.008474-17.492361 5.076612-5.104241 10.849071-9.107407 17.374681-12.065779 6.352672-2.902091 13.082944-4.177128 20.073134-4.177128 6.961538 0 13.69181 1.275037 20.043458 4.177128 6.526634 2.958372 12.328768 6.991214 17.374681 12.065779 5.076612 5.106288 9.079778 10.906376 12.008474 17.461662 2.901067 6.469329 4.177128 13.256905 4.177128 20.306448s-1.27606 13.864748-4.177128 20.304401C544.661822 80.542223 540.658656 86.37301 535.582044 91.479298L535.582044 91.479298zM467.560971 209.188952l0.086981-0.085958c0.754175-0.813527 3.509933-1.654683 4.554727-1.914602 8.092289-2.030235 18.680417-2.234896 26.975321-2.234896 5.947444 0 13.5465 0.753152 18.304865 4.756318 8.034984 6.729248 9.020426 23.670048 9.020426 33.155055 0 13.198577 0.783851 26.570092 2.92972 39.62336 2.349506 14.15639 7.483423 27.731543 14.329328 40.290554 7.976656 14.619946 18.680417 28.457065 29.586793 41.016077 15.257465 17.607995 32.111284 34.37381 48.73179 50.647416 25.235704 24.685166 50.733373 53.663093 67.848135 84.700931 13.429844 24.394548 20.101787 50.877659 20.101787 78.724835 0 51.835472-12.095455 103.961562-50.442755 141.177088-38.056681 36.92593-89.139001 49.283351-140.916145 49.283351-56.244889 0-107.210553-16.417892-147.240165-56.679794-35.969141-36.143103-57.462621-79.306072-57.462621-130.705616 0-23.728377 7.831347-30.689915 31.414414-30.689915 24.249239 0 30.253987 10.849071 31.44409 34.170172 1.74064 34.198825 15.692369 63.844969 40.435864 87.455666 26.947692 25.671631 61.552768 36.084774 98.334413 36.084774 34.924347 0 69.442443-8.528217 95.809921-32.574841 26.193516-23.930991 36.83895-56.389175 36.83895-91.343199 0-12.791302-0.724499-25.961226-3.046376-38.57959-2.46514-13.430867-7.861023-26.106536-15.08248-37.651453-7.775065-12.414726-17.521014-23.930991-27.673214-34.459767-13.197554-13.720462-27.00602-27.00602-40.610849-40.32023-29.035232-28.397714-56.098557-61.350154-74.547708-97.725547-14.591294-28.803965-23.61172-60.014742-23.61172-92.445297 0-8.87614 0.289595-18.245513 1.710965-27.033649C465.646368 214.14993 466.400544 210.610321 467.560971 209.188952L467.560971 209.188952z"  horiz-adv-x="1024" />

    
    <glyph glyph-name="licai" unicode="&#58997;" d="M617.992737 248.090362 617.992737 248.152814C637.951541 248.271917 654.084637 265.121694 654.084637 285.877088 654.084637 306.631033 637.951541 323.459023 617.992737 323.58248L617.992737 323.662365 544.854995 323.662365C545.015644 324.536734 544.776806 325.290553 544.854995 326.124253L630.543225 417.264984C644.54382 433.634005 637.435474 447.176573 623.291294 462.042317 609.068921 476.957442 585.844543 480.100528 574.331871 467.079385L500.622623 385.379529 421.030508 468.168716C410.950878 478.648082 391.353176 475.227582 377.253068 460.555014 363.152959 445.878092 359.887386 425.464017 369.96133 415.007891L451.346169 330.35812C449.83067 328.320348 448.836923 326.085038 448.259726 323.662365L382.112331 323.662365 382.112331 323.599909 381.913297 323.599909C361.876301 323.599909 345.626629 306.709463 345.626629 285.877088 345.626629 265.043263 361.876301 248.10779 381.913297 248.10779 381.974429 248.10779 382.035561 248.147005 382.112331 248.147005L382.112331 248.090362 454.611741 248.090362 454.611741 210.502615 382.112331 210.502615 382.112331 210.383516 381.913297 210.383516C361.876301 210.383516 345.626629 193.49307 345.626629 172.637454 345.626629 151.797817 361.876301 134.889943 381.913297 134.889943 381.974429 134.889943 382.035561 134.930612 382.112331 134.930612L382.112331 134.889943 454.611741 134.889943 454.611741 96.899871 455.368069 96.899871C454.812196 93.94996 454.489478 90.875142 454.489478 87.703011 454.489478 61.656367 474.809387 40.533504 499.822223 40.533504 524.90188 40.533504 545.193353 61.656367 545.193353 87.703011 545.193353 90.875142 544.854995 93.94996 544.293437 96.899871L544.732733 96.899871 544.732733 134.889943 618.015482 134.930612C637.951541 135.05552 654.078947 151.877702 654.078947 172.637454 654.078947 193.407373 637.951541 210.219389 618.015482 210.344301L618.015482 210.502615 544.732733 210.502615 544.732733 248.090362 617.992737 248.090362 617.992737 248.090362Z"  horiz-adv-x="1024" />

    
    <glyph glyph-name="huafei" unicode="&#58938;" d="M423.03139 814.493274h177.93722v-29.847534h-177.93722v29.847534zM600.96861 814.493274h-177.93722v-29.847534h177.93722v29.847534zM734.70852-128H289.29148c-44.7713 0-81.506726 37.309417-81.506727 81.506726v860.986548C207.784753 858.690583 245.09417 896 289.29148 896h445.41704C778.90583 896 816.215247 858.690583 816.215247 814.493274v-860.986548c0-44.197309-37.309417-81.506726-81.506727-81.506726zM289.29148 851.2287c-20.663677 0-37.309417-16.071749-37.309417-37.309417v-860.986548c0-20.663677 16.071749-37.309417 37.309417-37.309417h445.41704c20.663677 0 37.309417 16.071749 37.309417 37.309417v860.986548c0 20.663677-16.071749 37.309417-37.309417 37.309417H289.29148zM230.170404 127.426009h563.659192v-44.7713H230.170404v44.7713zM467.2287 5.73991c0-24.681614 20.089686-44.7713 44.7713-44.7713s44.7713 20.089686 44.7713 44.7713-20.089686 44.7713-44.7713 44.771301c-24.681614-0.573991-44.7713-20.089686-44.7713-44.771301z"  horiz-adv-x="1024" />

    
    <glyph glyph-name="shape64kaobei2" unicode="&#58929;" d="M1116.328 115.959h-82.55c-15.271 0-41.274 26.003-41.274 41.274v82.549c0 1.196-0.041 119.819 0 123.822 0.95 136.123-74.418 247.646-206.372 247.646-131.417 0-206.372-139.217-206.372-247.646 0.041-3.881 0-122.213 0-123.822 0-8.048 1.073-12.713 0-15.435v-67.112l-41.273-41.274h-82.549c-55.184 0-82.549 24.145-82.549 82.549v123.822c0 58.403 27.365 82.549 82.549 82.549h82.549c0.454 0 1.775 0 2.477 0 14.571 149.99 96.953 247.646 245.168 247.646 148.381 0 231.837-105.083 245.458-248.388 0.66 0.082 1.525 0.743 2.187 0.743h82.549c55.184 0 82.508-29.346 82.508-87.748v-115.981c0-58.403-27.322-85.19-82.508-85.19zM455.94 363.605c-24.683 0-41.274-13.291-41.274-41.274v-123.822c0-27.984 16.592-41.273 41.274-41.273h82.55v82.55c0 1.61-0.041 122.213 0 123.822h-82.55zM1157.602 322.329c0 27.984-34.133 45.527-58.857 45.527l-64.965-4.253c0-0.907 0-122.586 0-123.822v-82.549h82.549c24.723 0 41.274 13.291 41.274 41.274v123.823zM544.886 115.959c-2.436 0-5.16 0-6.398 0 0 0.124 2.558 0.082 6.398 0zM579.763 115.959c-0.95-0.95-23.527-0.247-34.876 0 12.135 0 34.876 0 34.876 0z"  horiz-adv-x="1574" />

    
    <glyph glyph-name="qia" unicode="&#58902;" d="M899.184 711.712H125.872a92.672 92.672 0 0 1-92.576-92.576v-469.584a92.688 92.688 0 0 1 92.576-92.576H899.2a92.688 92.688 0 0 1 92.56 92.576V619.136a92.688 92.688 0 0 1-92.576 92.576zM125.872 673.136H899.2a54.08 54.08 0 0 0 54-54v-54H71.856v54a54.064 54.064 0 0 0 54.016 54z m773.312-577.568H125.872a54.064 54.064 0 0 0-54 54V446.544h881.328v-296.992a54.08 54.08 0 0 0-54.016-53.984z"  horiz-adv-x="1024" />

    
    <glyph glyph-name="zuji" unicode="&#58890;" d="M561.612174 895.999744a511.744 511.744 0 0 1-468.24576-304.231808 25.5872 25.5872 0 0 1 46.568704-20.725632 462.104832 462.104832 0 1 0-38.636672-201.627136h25.5872A23.540224 23.540224 0 0 1 142.493838 409.842944l-51.1744 51.1744a23.540224 23.540224 0 0 1-33.26336 0l-51.1744-51.1744a23.540224 23.540224 0 0 1 16.63168-40.171904h25.5872A511.744 511.744 0 1 1 561.612174 895.999744zM510.693646 611.214208a25.5872 25.5872 0 0 1-25.5872-25.5872v-316.00192a25.5872 25.5872 0 0 1 25.5872-25.5872l215.955968 1.791104a25.5872 25.5872 0 0 1 25.5872 25.5872 25.5872 25.5872 0 0 1-25.5872 25.5872l-190.112896-1.535232V585.627008a25.5872 25.5872 0 0 1-25.843072 25.5872z"  horiz-adv-x="1073" />

    
    <glyph glyph-name="gouwuche" unicode="&#58895;" d="M872.1 128h-660l-66 475.6 63.4 8.8L267.9 192h556l109.7 384H320v64h698.4zM208.3 155.6L132.1 704H0v64h187.9l83.8-603.6zM349-64h-58l-35 35v58l35 35h58l35-35v-58l-35-35zM797-64h-58l-35 35v58l35 35h58l35-35v-58l-35-35z"  horiz-adv-x="1024" />

    
    <glyph glyph-name="xiaoxi" unicode="&#58956;" d="M960 128h-437.72928l-237.47584-237.47072C279.68512-120.3456 268.81024-128 256-128c-0.59392 0-1.08544 0.3072-1.66912 0.33792a30.38208 30.38208 0 0 0-22.0928 8.8576c-6.91712 6.92224-9.33888 16.26112-8.23808 25.27744V128H64C28.65152 128 0 156.65664 0 192v640C0 867.34848 28.65152 896 64 896h896c35.34848 0 64-28.65152 64-63.99488v-640c0-35.34848-28.65152-64.00512-64-64.00512z m0 640.00512c0 35.34336-28.65152 64-64 64H128c-35.34848 0-64-28.65664-64-64V256c0-35.34336 28.65664-64 64-64h128a32 32 0 0 0 32-32v-179.81952l203.61216 203.61216c6.96832 6.9632 16.39424 9.3696 25.46176 8.20224H896c35.34848 0 64 28.65664 64 64V768.00512z m-256-320.00512c-35.34848 0-64 28.65664-64 64s28.65152 64 64 64S768 547.34336 768 512c0-35.33824-28.65152-64-64-64z m-192 0c-35.34848 0-64 28.65664-64 64s28.65152 64 64 64 64-28.65664 64-64c0-35.33824-28.65152-64-64-64z m-192 0C284.65664 448 256 476.65664 256 512s28.65664 64 64 64C355.34848 576 384 547.34336 384 512c0-35.33824-28.65152-64-64-64z"  horiz-adv-x="1024" />

    
    <glyph glyph-name="shuidianmei" unicode="&#58930;" d="M152.482809 310.156577c0-195.710471 158.398763-355.197225 354.717228-355.197225 196.318466 0 354.717229 159.486754 354.717229 355.197225 0 113.071117-103.039195 268.061906-314.84554 456.076437-12.895899 11.439911-27.823783 24.27181-27.823783 24.27181a18.927852 18.927852 0 0 1-24.159811-0.063999s-15.439879-13.279896-28.591777-24.959805C255.250006 577.802486 152.482809 423.083695 152.482809 310.156577zM481.888235 886.760072c14.767885 12.319904 35.85572 12.319904 50.623605 0C805.757705 658.921852 942.396638 466.715354 942.396638 310.156577 942.396638 68.158468 747.55016-128 507.200037-128 266.849915-128 72.003437 68.158468 72.003437 310.156577 72.003437 466.715354 208.64237 658.921852 481.888235 886.760072zM507.200037 262.812947H317.985516l245.982078 312.637557-37.839704-195.390473h189.214521L469.360333 67.406473 507.200037 262.812947z"  horiz-adv-x="1024" />

    
    <glyph glyph-name="ren" unicode="&#58882;" d="M510.238 877.242c-157.525 0-285.671-128.151-285.671-285.677 0-114.08 67.367-212.466 164.27-258.22-179.148-52.611-310.438-218.241-310.438-414.179 0-12.47 10.106-22.566 22.566-22.566 12.46 0 22.566 10.097 22.566 22.566 0 213.236 173.495 386.723 386.706 386.723 157.525 0 285.682 128.151 285.682 285.677s-128.157 285.677-285.682 285.677v0zM510.238 351.02200000000005c-132.642 0-240.538 107.913-240.538 240.543 0 132.638 107.895 240.543 240.538 240.543 132.647 0 240.549-107.906 240.549-240.543 0-132.638-107.895-240.543-240.549-240.543v0zM510.238 351.02200000000005zM772.185 262.53999999999996c-9.921 7.559-24.066 5.686-31.623-4.231-7.579-9.916-5.686-24.062 4.228-31.644 96.703-73.893 152.149-185.978 152.149-307.492 0-12.475 10.111-22.572 22.567-22.572 12.47 0 22.566 10.097 22.566 22.572 0 135.707-61.924 260.859-169.888 343.369v0zM772.185 262.53999999999996z"  horiz-adv-x="1024" />

    
    <glyph glyph-name="yijianfankui" unicode="&#59202;" d="M832.768 554.794667c0 18.901333 15.872 34.261333 35.413333 34.261333 19.882667 0 36.096-15.658667 36.096-34.858667v-550.144c0-60.970667-51.498667-110.72-114.602666-110.72H157.226667C94.165333-106.66666699999996 42.666667-56.917332999999985 42.666667 4.053332999999952V692.992c0 60.970667 51.498667 110.72 114.56 110.72h493.738666c20.650667 0 37.333333-16.128 37.333334-36.096 0-21.632-18.090667-39.296-40.661334-39.296H149.12c-19.370667 0-35.114667-15.36-35.114667-33.92v-691.882667c0-18.773333 15.914667-33.962667 35.114667-33.962666h648.533333c19.370667 0 35.114667 15.36 35.114667 33.962666V554.794667z m-388.693333-101.034667H215.552a28.885333 28.885333 0 0 0-29.226667 28.288V495.36c0 15.488 13.184 28.245333 29.226667 28.245333h228.522667c16.042667 0 29.226667-12.757333 29.226666-28.245333v-13.354667c0.170667-15.530667-13.013333-28.288-29.226666-28.288z m214.357333-210.048H215.552a28.885333 28.885333 0 0 0-29.226667 28.245333v13.397334c0 15.488 13.184 28.245333 29.226667 28.245333h442.88c16.042667 0 29.226667-12.757333 29.226667-28.245333v-13.397334c0-15.488-13.184-28.245333-29.226667-28.245333z m314.325333 573.184l-366.293333-355.882667a30.250667 30.250667 0 0 0-41.472-0.170666l-9.813333 9.514666a27.818667 27.818667 0 0 0-0.213334 40.106667L921.429333 866.304a30.250667 30.250667 0 0 0 41.472 0.170667l9.813334-9.514667c11.477333-11.093333 11.477333-29.013333 0-40.106667z"  horiz-adv-x="1024" />

    
    <glyph glyph-name="gongyi" unicode="&#58917;" d="M1170.945419 584.051727a322.447441 322.447441 0 0 1-34.978312 118.990579 366.241271 366.241271 0 0 1-95.21138 114.639571A347.758951 347.758951 0 0 1 910.339027 887.108812a248.120894 248.120894 0 0 1-107.8293 5.107704 234.878699 234.878699 0 0 1-99.562387-41.618326l-109.00218-86.830963a990.781009 990.781009 0 0 1-126.160281 101.019028 332.265583 332.265583 0 0 1-148.615259 30.267874 299.860041 299.860041 0 0 1-121.071495-27.619435 320.555699 320.555699 0 0 1-119.520266-98.938112C14.050536 683.746536-10.939377 593.699612 4.270229 500.815075a408.616294 408.616294 0 0 1 75.253501-172.52688c48.977203-67.913541 391.079845-395.941622 405.627342-409.940513l0.926953-0.756697a210.664401 210.664401 0 0 1 70.164715-37.645668 175.269906 175.269906 0 0 1 50.282505-7.756143 157.922631 157.922631 0 0 1 104.859265 41.050804c96.686939 83.615001 392.271642 435.668206 404.83281 450.612969a254.325808 254.325808 0 0 1 41.429152 85.506743 360.944393 360.944393 0 0 1 13.355699 134.692037zM119.64758 357.231849C54.817578 447.089599 1.905552 586.321818 117.907178 738.607057a252.888084 252.888084 0 0 0 202.416404 107.072603 292.122815 292.122815 0 0 0 123.606429-24.025125 1007.920192 1007.920192 0 0 0 122.528136-99.505634 913.597931 913.597931 0 0 0 135.221726-145.285794 59.306115 59.306115 0 0 0-9.628967-70.940329 54.520007 54.520007 0 0 0-60.233069-21.944208c-64.640828 28.186957-163.4276 135.25956-164.430223 136.394606a24.743987 24.743987 0 1 1-36.434953-33.483836c0.794532-0.756697 4.918529-5.296878 11.558544-12.107149a24.914243 24.914243 0 0 1-23.533272-6.431923L160.584879 310.127471a561.941992 561.941992 0 0 0-40.899464 47.104378z m990.516165 106.126732a203.816294 203.816294 0 0 0-31.913689-67.724367c-3.045705-3.59431-305.535267-363.97118-399.157584-445.126917a107.942804 107.942804 0 0 0-106.788841-23.646776 161.100757 161.100757 0 0 0-53.47955 27.808609c-6.791354 6.431923-13.942139 13.431369-21.41452 20.619989l260.511805 260.303713a24.743987 24.743987 0 0 1-34.978312 34.997229l-260.492887-260.303713a3.045705 3.045705 0 0 0-0.681028-0.756697c-19.447109 18.728247-40.142767 38.780713-61.387031 59.589876l0.58644 0.567523 260.511805 260.303713a24.668317 24.668317 0 1 1-34.978311 34.808055L366.009154 104.495104a3.915906 3.915906 0 0 1-0.889119-0.945871c-24.384556 24.025125-48.939368 48.239424-72.661814 71.697026l259.868613 259.736191a24.743987 24.743987 0 1 1-34.978312 34.997229L257.612332 210.243488c-22.700905 22.890079-44.001921 44.455939-62.881508 64.130057l259.263255 258.979494a24.592647 24.592647 0 0 1 6.564346 23.079254c36.775466-36.510623 100.773102-95.532976 151.528542-117.666359a103.099945 103.099945 0 0 1 117.760946 35.186403 107.469869 107.469869 0 0 1 13.336782 129.773508 838.041751 838.041751 0 0 1-112.501903 126.179198l103.156697 81.912433 0.227009 0.189175a186.733863 186.733863 0 0 0 76.974986 31.592093 204.87567 204.87567 0 0 0 86.830962-4.161833 301.203178 301.203178 0 0 0 111.612784-59.968225 288.358249 288.358249 0 0 0 112.237059-200.146314 311.134824 311.134824 0 0 0-11.539627-115.963791z"  horiz-adv-x="1172" />

    
    <glyph glyph-name="qiandao" unicode="&#58880;" d="M856.50669313 756.58741219l-68.01806157 0L788.48863156 787.27672312c0 42.37330687-34.34997 76.72327687-76.72327687 76.72327688l-0.95904094 0c-42.37330687 0-76.72327687-34.34997-76.72327688-76.72327687l0-30.68931094L386.84515531 756.58741219 386.84515531 787.27672312c0 42.37330687-34.34997 76.72327687-76.72327687 76.72327688l-0.95904094 0c-42.37330687 0-76.72327687-34.34997-76.72327687-76.72327687l0-30.68931094-65.90433563 0C92.23352656 756.58741219 32 696.35388656 32 622.05218813l0-446.84787188c0-74.30169844 60.23352656-134.53426594 134.535225-134.53426594L856.50669313 40.670050309999965c74.30169844 0 134.53426594 60.23352656 134.53426593 134.53426594L991.04095906 622.05218813C991.04095906 696.35388656 930.8074325 756.58741219 856.50669313 756.58741219zM681.07604375 787.75624406c0 17.21382656 13.95500531 31.16883094 31.16883094 31.16883094s31.16883094-13.95500531 31.16883093-31.16883094l0-108.37162875c0-17.21382656-13.95500531-31.16883094-31.16883093-31.16883094s-31.16883094 13.95500531-31.16883094 31.16883094L681.07604375 787.75624406zM279.4325675 787.75624406c0 17.21382656 13.95500531 31.16883094 31.16883094 31.16883094S341.77022938 804.97006969 341.77022938 787.75624406l0-108.37162875c0-17.21382656-13.95500531-31.16883094-31.16883094-31.16883094S279.4325675 662.17078875 279.4325675 679.38461531L279.4325675 787.75624406zM930.50053906 202.11212811999997c0-53.07236719-43.02353625-96.09590438-96.09590437-96.09590437L189.59824156 106.01622375c-53.07236719 0-96.09590438 43.02353625-96.09590437 96.09590438L93.50233812 598.02821156c0 53.07236719 43.02353625 96.09590438 96.09590438 96.09590438L232.43956062 694.12411594 232.43956062 678.90509531c0-42.37330687 34.34997-76.72327687 76.72327688-76.72327687l0.95904094 0c42.37330687 0 76.72327687 34.34997 76.72327687 76.72327687l0 15.21997969 247.2378825 0L634.08303687 678.90509531c0-42.37330687 34.34997-76.72327687 76.72327688-76.72327687l0.95904094 0c42.37330687 0 76.72327687 34.34997 76.72327687 76.72327687l0 15.21997969 45.91600406 0c53.07236719 0 96.09590438-43.02353625 96.09590438-96.09590438L930.50053906 202.11212811999997zM603.23548438 579.26553469c-9.06485531 5.3322675-19.72939031 9.06485531-31.99360594 10.664535-25.06165875-43.724595-42.65718281-81.05046938-52.25622375-113.04407625 8.53162875-5.3322675 18.12971063-9.06485531 29.86165875-10.664535 9.59808188 21.32907094 18.66293719 39.99200812 26.66133843 55.98881156 43.724595-10.13130844 86.38273688-14.93034938 128.50765219-14.93034938 2.66613375 10.13130844 4.26581437 19.19616375 4.26581438 27.194565-38.3923275 6.93194812-78.38433563 12.26421563-118.90957032 16.53003C595.23708312 563.26873125 600.03612406 572.86681312 603.23548438 579.26553469zM442.20003969 447.02529469c4.79904094 9.59808188 7.99840125 18.66293719 9.59808187 27.194565-18.12971063 6.39872156-34.65974063 12.26421563-50.12331656 16.53003-4.26581437-7.99840125-6.93194812-17.06325656-9.06485531-27.194565C407.0070725 455.55692344 423.5371025 450.224655 442.20003969 447.02529469zM382.47864125 513.14541469c33.06006-6.93194812 65.05366594-10.13130844 95.98081875-10.13130844 2.13290719 10.13130844 3.73258781 19.19616375 3.73258781 27.194565-26.66133844 4.26581437-53.85590438 8.53162875-82.11692343 11.73098906 4.26581437 7.46517469 9.06485531 15.99680344 14.39712281 25.59488531-9.59808188 6.39872156-20.26261781 11.1977625-31.99360594 14.93034938-33.06006-53.32267687-54.9223575-89.58209813-65.58689344-109.844715 6.93194812-7.46517469 16.53003-12.26421563 28.26101907-15.46357688C356.88375594 473.68663313 369.68215813 492.34957031 382.47864125 513.14541469zM418.204835 321.18377625000005c59.72139844-3.73258781 119.44279687-5.3322675 180.23160844-5.3322675 2.13290719 9.59808188 3.19936031 20.26165875 3.19936031 31.46037937-59.72139844 3.19936031-119.97698344 5.3322675-180.23064938 6.39872157C419.27224812 343.04607375 418.204835 332.38249781 418.204835 321.18377625000005zM351.5524475 190.00999031000003c0-10.66357688 0.53322656-21.8622975 2.13290719-32.52587437 109.31148844 1.06549406 215.95684313 3.19936031 320.47024968 6.39872156 0.53322656 3.73258781 1.06549406 9.59808188 1.06549407 17.59648312 0 6.39872156-1.06549406 11.73098906-2.13290719 15.99680344C553.64539438 195.87548438 446.46585406 193.21030969000003 351.5524475 190.00999031000003zM611.76615406 493.94925094c-3.19936031-7.99840125-5.864535-17.59648312-6.93194812-28.26101907 25.59488531-8.53162875 45.32427562-12.79744219 59.18817187-12.79744218 4.26581437 8.53162875 6.39872156 18.12971063 7.46517469 27.7277925C651.22589375 485.95084875 631.49650344 490.74988969 611.76615406 493.94925094zM555.7773425 428.3623575c-5.3322675 10.13130844-13.32971063 19.19616375-22.92875156 26.66133844-78.91756219-29.86069969-148.77027-61.32107906-210.09134907-94.38209813 2.13290719-9.59808188 9.59808188-18.66197813 21.86229751-27.19360594 50.12331656 22.39552406 101.31308719 45.32427562 152.50285687 68.78625376 56.52299719-27.7277925 112.51084875-52.25622375 167.96739281-72.51980063 8.53162875 9.06581438 14.39712281 18.12971063 18.66293719 27.7277925-45.85750219 22.39648312-93.314685 43.724595-142.904775 63.98721281C545.11376656 423.56331656 550.44603406 425.69622375 555.7773425 428.3623575zM604.30193844 212.93874094c20.79584438 26.66133844 37.32587438 52.79040938 49.59009 78.91756218-11.73098906 4.79904094-22.39648312 8.53162875-32.52683344 11.73003-17.06325656-23.46101906-33.06101906-49.05590438-47.45718281-76.25046937C582.43964 220.40391562000002 592.57094937 215.60487468999997 604.30193844 212.93874094zM509.38661375 222.00359625c10.13130844 4.79904094 19.19712281 10.664535 27.194565 18.12971063-11.73098906 20.26261781-24.52939031 39.45878156-38.92555406 56.52203812-10.664535-5.86549406-19.72939031-11.73003-27.194565-17.59648312C480.59236719 258.79624406000005 493.38981031 239.60008030999995 509.38661375 222.00359625zM392.07768219 292.38953062999997c-8.53162875-5.864535-17.06325656-12.79744219-25.06165875-21.32811188 14.93034938-25.06165875 31.99360594-44.79104906 51.18977062-58.65494531 10.13130844 6.39872156 18.66293719 13.33066969 25.06165875 20.79584437C427.80387594 254.53042969 410.74061937 274.25982 392.07768219 292.38953062999997z"  horiz-adv-x="1024" />

    
    <glyph glyph-name="shouhouwuyou" unicode="&#58883;" d="M987.099099 327.623624c14.862863 19.987988 26.138138 53.301301 26.138138 80.464464v0.512513c-1.025025 33.313313-16.912913 63.039039-45.101101 84.052052-27.675676 20.500501-65.601602 31.775776-108.652653 31.775775h-194.242242c13.837838 47.151151 19.475475 100.452452 16.912913 153.241242-3.075075 62.014014-17.937938 117.365365-42.026026 155.291291-14.35035 22.550551-31.263263 39.463463-50.226226 49.713714-15.375375 8.2002-31.775776 12.812813-48.688689 12.812812-40.488488 0.512513-69.701702-17.425425-85.589589-51.251251-12.812813-27.163163-12.812813-58.426426-12.812813-68.676676 0-87.127127-12.3003-125.053053-26.650651-158.366367-5.125125-9.737738-25.625626-33.313313-52.788789-54.326326-42.538539-32.288288-75.851852-38.950951-96.352352-38.950951H123.003003c-28.700701 0-54.838839-10.762763-74.826827-30.750751C23.575576 469.077077 10.25025 432.688689 10.25025 392.2002v-0.512512l37.413414-403.85986c5.637638-74.314314 44.588589-114.802803 110.702702-114.802803 1.537538 0 30.750751-0.512513 52.276277-0.512512 9.225225 0 21.525526 0 28.7007 0.512512 23.063063 0.512513 41.001001 14.35035 55.351352 25.113113l3.587587 2.562563c3.587588 2.562563 8.2002 6.15015 10.762763 7.687687 2.05005-1.025025 5.637638-2.562563 8.2002-4.1001 7.175175-3.587588 17.425425-8.712713 28.188188-13.325325 26.138138-11.275275 64.064064-18.45045 96.352353-18.45045h301.86987c52.788789 0 94.302302 10.25025 122.49049 30.75075 28.700701 20.500501 44.076076 51.251251 44.076076 89.177177 0 13.837838-2.05005 24.600601-6.662662 35.363364 43.563564 16.912913 68.676677 49.713714 68.676676 90.714715 0 12.3003-3.075075 29.725726-10.25025 44.588588 8.712713 6.15015 17.425425 13.837838 25.113113 23.063063 16.912913 19.987988 26.650651 43.563564 26.650651 65.601602 0 31.263263-9.225225 57.401401-26.650651 75.851852m-88.152152-114.802803h-22.038038l1.025025-65.601602 10.25025-4.1001h0.512513c3.075075-1.025025 9.225225-3.587588 9.225225-23.575575 0-3.587588 0-13.837838-17.937938-22.550551-12.3003-6.15015-29.725726-9.737738-48.176176-9.737738v-16.4004l-16.400401 0.512512-1.025025-49.201201 13.325326-3.075075c2.562563-0.512513 8.2002-2.05005 8.2002-23.063063 0-14.862863-5.637638-25.625626-17.937938-33.313313-15.375375-10.25025-41.513514-15.887888-75.339339-15.887888H430.510511c-11.787788 0-39.463463 8.2002-55.351352 15.887888-12.3003 6.15015-30.750751 16.4004-42.538538 23.063063V461.389389c78.926927 27.163163 141.453453 95.327327 157.853853 128.128129l0.512513 1.025025c17.937938 42.026026 28.188188 86.614615 28.188188 189.629629 0 23.063063 4.1001 31.263263 6.662663 34.338339 1.537538 1.537538 3.587588 3.587588 12.3003 3.587587 8.2002 0 29.725726-13.325325 41.001001-31.263263 17.937938-28.188188 28.700701-74.826827 29.725726-124.540541 1.025025-55.351351-9.737738-110.19019-31.263263-154.266266l-1.025025-1.537538-13.837838-56.888888h297.76977c50.738739-3.075075 78.414414-23.063063 78.414414-41.001001l-0.512513-11.787788c-0.512513-8.2002-4.1001-25.113113-11.275275-31.263263-7.175175-6.15015-12.812813-7.175175-14.35035-7.687688l-15.375376 0.512512-0.512512-53.813813v-14.350351l14.35035-2.05005c5.125125-0.512513 13.837838-3.075075 16.912913-5.125125 7.175175-5.125125 11.275275-15.887888 10.762763-29.725726 0-5.125125-5.637638-15.887888-15.887888-26.138138-10.25025-10.25025-19.987988-14.35035-24.088088-14.35035M257.793794 450.114114v-487.399399c-4.1001-2.562563-7.687688-5.637638-10.25025-7.687688-5.637638-4.1001-10.25025-7.175175-12.812813-8.712713H154.266266c-14.35035 0-28.700701 16.912913-32.800801 37.925926l-37.413413 417.697698c0.512513 25.625626 19.987988 46.126126 37.925926 48.176176h135.815816z"  horiz-adv-x="1024" />

    
    <glyph glyph-name="dingweiweizhi" unicode="&#58893;" d="M512 847.5c-212.1 0-384-171.9-384-384 0-106 43-202 112.5-271.5L512-79.5 783.5 192C853 261.5 896 357.5 896 463.5c0 212.1-171.9 384-384 384z m0-554.6c-94.3 0-170.7 76.4-170.7 170.7S417.7 634.2 512 634.2s170.7-76.4 170.7-170.7S606.3 292.9 512 292.9z"  horiz-adv-x="1024" />

    
    <glyph glyph-name="huabanfuben" unicode="&#58975;" d="M977.917673 472.901818V640a69.818182 69.818182 0 0 1-69.818182 69.818182h-116.363636V779.636364a69.818182 69.818182 0 0 1-69.818182 69.818181H140.099491C75.634036 849.454545 0.463127 798.72 0.463127 733.090909v-721.454545a84.712727 84.712727 0 0 1 93.090909-93.090909h791.272728a95.883636 95.883636 0 0 1 93.090909 93.090909v190.370909A69.818182 69.818182 0 0 1 1024.463127 267.636364v139.636363a69.818182 69.818182 0 0 1-46.545454 65.629091zM47.008582 733.090909c0 36.072727 52.363636 69.818182 93.090909 69.818182h581.818182a23.272727 23.272727 0 0 0 23.272727-23.272727v-69.818182H93.554036a128.232727 128.232727 0 0 1-46.545454-8.145455z m884.363636-721.454545a49.570909 49.570909 0 0 0-46.545454-46.545455H93.554036c-33.512727 0-46.545455 13.032727-46.545454 46.545455V640c0 14.196364 18.385455 23.272727 46.545454 23.272727h814.545455a23.272727 23.272727 0 0 0 23.272727-23.272727v-162.909091h-209.454545a69.818182 69.818182 0 0 1-69.818182-69.818182v-139.636363a69.818182 69.818182 0 0 1 69.818182-69.818182h209.454545z m46.545455 256a23.272727 23.272727 0 0 0-23.272728-23.272728H721.917673a23.272727 23.272727 0 0 0-23.272728 23.272728v139.636363a23.272727 23.272727 0 0 0 23.272728 23.272728h232.727272a23.272727 23.272727 0 0 0 23.272728-23.272728zM815.008582 337.454545m-46.545455 0a46.545455 46.545455 0 1 1 93.090909 0 46.545455 46.545455 0 1 1-93.090909 0Z"  horiz-adv-x="1024" />

    
    <glyph glyph-name="saomiaosaomaerweimaxianxing" unicode="&#59676;" d="M113.777778 753.777778a28.444444 28.444444 0 0 0 28.444444 28.444444h227.555556a28.444444 28.444444 0 0 0 0-56.888889H170.666667v-199.111111a28.444444 28.444444 0 0 0-56.888889 0V753.777778zM85.333333 355.555556a28.444444 28.444444 0 0 0 0 56.888888h853.333334a28.444444 28.444444 0 0 0 0-56.888888H85.333333zM910.222222 753.777778v-227.555556a28.444444 28.444444 0 0 0-56.888889 0V725.333333h-199.111111a28.444444 28.444444 0 0 0 0 56.888889h227.555556a28.444444 28.444444 0 0 0 28.444444-28.444444z m-56.888889-711.111111v199.111111a28.444444 28.444444 0 0 0 56.888889 0v-227.555556a28.444444 28.444444 0 0 0-28.444444-28.444444h-227.555556a28.444444 28.444444 0 0 0 0 56.888889h199.111111zM113.777778 14.222222v227.555556a28.444444 28.444444 0 0 0 56.888889 0v-199.111111h199.111111a28.444444 28.444444 0 0 0 0-56.888889H142.222222a28.444444 28.444444 0 0 0-28.444444 28.444444z"  horiz-adv-x="1024" />

    
    <glyph glyph-name="301" unicode="&#58881;" d="M786.67264 393.90208L786.67264 442.54208 610.67776 442.54208 610.67776 575.8976 788.67456 575.8976 788.67456 620.5388800000001 364.04736 620.5388800000001 364.04736 575.8976 550.0416 575.8976 550.0416 236.54912000000002 454.68672 236.54912000000002 454.68672 496.5376 394.04544 496.5376 394.04544 236.54912000000002 352.04608 236.54912000000002 352.04608 193.90976 796.672 193.90976 796.672 236.54912000000002 610.67776 236.54912000000002 610.67776 393.90208ZM570.35776 895.93856L160.77312 761.96864l2.06848-521.6768 0.46592-5.65248c0.74752-3.42528 16.50688-86.30272 95.31904-166.13888 60.5952-61.54752 209.19296-141.94176 272.60416-176.24576 9.9584-5.41184 17.38752-9.40032 21.66784-11.83744l15.03744-8.41216 18.49344 9.66656c37.06368 18.71872 225.58208 115.69152 295.6288 186.71616 78.88896 79.91808 94.64832 162.79552 95.31904 166.2208l2.57536 527.32928L570.35776 895.93856zM914.8928 243.88095999999996c-2.97472-12.16-19.93216-72.21248-77.40928-130.48832-58.39872-59.30496-221.96736-145.44896-268.45696-169.33888-2.45248 1.3056-5.12 2.69312-7.93088 4.224-55.74144 30.16192-203.7504 110.2336-257.77664 165.11488-57.63584 58.35776-74.48064 118.32832-77.45024 130.48832l-1.87904 471.82336 346.37312 113.3568 346.37312-113.3568L914.8928 243.88095999999996z"  horiz-adv-x="1060" />

    
    <glyph glyph-name="fanhuidingbu" unicode="&#59187;" d="M116.096 299.92h90.87v-231.988h42.486V299.92h90.87V342.4H116.095v-42.48z m458.537 42.48H462.085c-13.588 0-27.182-5.187-37.545-15.55-10.373-10.367-15.554-23.961-15.554-37.555v-168.248c0-13.594 5.181-27.187 15.554-37.555 10.368-10.368 23.962-15.555 37.545-15.555h112.548c13.588 0 27.187 5.187 37.555 15.555s15.55 23.961 15.55 37.555V289.29c0 13.599-5.182 27.187-15.55 37.56-10.368 10.363-23.961 15.55-37.555 15.55z m10.63-221.353c0-2.012-0.549-4.946-3.109-7.516-2.57-2.57-5.509-3.108-7.516-3.108H462.085c-2.007 0-4.936 0.538-7.506 3.108s-3.113 5.504-3.113 7.516V289.29c0 2.012 0.543 4.946 3.113 7.516s5.5 3.113 7.506 3.113h112.548c2.007 0 4.946-0.542 7.506-3.113 2.57-2.57 3.118-5.504 3.118-7.516v-168.243h0.005z m307.086 205.804c-10.368 10.357-23.966 15.549-37.555 15.549H709.14v-274.463h42.481V188.314h103.173c13.594 0 27.187 5.186 37.555 15.554s15.555 23.962 15.555 37.55v47.877c0 13.594-5.181 27.182-15.555 37.556z m-26.93-85.433c0-2.007-0.538-4.94-3.109-7.51s-5.509-3.109-7.51-3.109H751.63v69.12H854.8c2.007 0 4.941-0.542 7.511-3.113s3.108-5.504 3.108-7.516v-47.872zM315.97 525.932c55.05 49.602 185.703 167.31 189.758 170.89 5.146 4.541 11.387 3.978 15.304 0.384 2.744-2.52 138.49-124.749 191.227-172.237 8.304-6.994 6.103-20.741-4.317-20.741s-377.85-0.097-384.43 0-14.95 12.416-7.541 21.704z"  horiz-adv-x="1024" />

    
    <glyph glyph-name="jisuwuliu" unicode="&#58998;" d="M952.32 368.64L805.12 499.2H665.6V627.2c0 21.76-16.64 38.4-38.4 38.4H204.8c-21.76 0-38.4-16.64-38.4-38.4v-217.6H102.4c-7.68 0-12.8-5.12-12.8-12.8s5.12-12.8 12.8-12.8h64v-37.12h25.6V384h51.2c7.68 0 12.8 5.12 12.8 12.8s-5.12 12.8-12.8 12.8h-51.2V627.2c0 7.68 5.12 12.8 12.8 12.8h422.4c7.68 0 12.8-5.12 12.8-12.8v-422.4c0-7.68-5.12-12.8-12.8-12.8H408.32c-6.4 35.84-37.12 64-75.52 64s-69.12-28.16-75.52-64H204.8c-7.68 0-12.8 5.12-12.8 12.8v89.6h64c7.68 0 12.8 5.12 12.8 12.8s-5.12 12.8-12.8 12.8H64c-7.68 0-12.8-5.12-12.8-12.8s5.12-12.8 12.8-12.8h102.4v-89.6c0-21.76 16.64-38.4 38.4-38.4h52.48c6.4-35.84 37.12-64 75.52-64s69.12 28.16 75.52 64H718.08c6.4-35.84 37.12-64 75.52-64s69.12 28.16 75.52 64h37.12c37.12 0 66.56 29.44 66.56 66.56v90.88c0 17.92-7.68 34.56-20.48 44.8zM332.8 128c-28.16 0-51.2 23.04-51.2 51.2s23.04 51.2 51.2 51.2 51.2-23.04 51.2-51.2-23.04-51.2-51.2-51.2z m460.8 0c-28.16 0-51.2 23.04-51.2 51.2s23.04 51.2 51.2 51.2 51.2-23.04 51.2-51.2-23.04-51.2-51.2-51.2z m153.6 104.96c0-23.04-17.92-40.96-40.96-40.96h-37.12c-6.4 35.84-37.12 64-75.52 64s-69.12-28.16-75.52-64h-55.04c1.28 3.84 2.56 7.68 2.56 12.8V473.6h129.28l140.8-124.16c7.68-6.4 11.52-15.36 11.52-25.6v-90.88zM793.6 440.32c-5.12 5.12-11.52 7.68-17.92 7.68H742.4c-14.08 0-25.6-11.52-25.6-25.6v-76.8c0-14.08 11.52-25.6 25.6-25.6h89.6c14.08 0 25.6 11.52 25.6 25.6v23.04c0 6.4-2.56 14.08-7.68 17.92L793.6 440.32z m38.4-94.72h-89.6v76.8h33.28l56.32-55.04V345.6z"  horiz-adv-x="1024" />

    
    <glyph glyph-name="suningyigoulogo" unicode="&#59077;" d="M1203.4048 513.024c0 5.7344-5.7344 5.7344-5.7344 5.7344h-34.816v-5.7344l11.6736-173.8752c0-5.7344 5.7344-5.7344 5.7344-5.7344h34.816v5.7344l-11.6736 173.8752zM919.552 489.6768c-5.9392 0-5.9392 5.9392 0 0l-34.816 5.7344s-5.7344 0-5.7344-5.7344l-34.816-144.9984v-5.7344h34.816s5.7344 0 5.7344 5.7344l34.816 144.9984z m278.1184 156.672h-52.224l-23.1424 17.408s-5.7344 5.7344-11.6736 5.7344c-5.7344 0-5.7344 0-11.6736-5.7344l-17.408-17.408h-110.1824l-17.408 17.408s-5.7344 5.7344-11.6736 5.7344-5.7344 0-11.6736-5.7344l-17.408-17.408h-52.224c-5.7344 0-5.7344 0-5.7344-5.7344V617.472c0-5.7344 0-5.7344 5.7344-5.7344h336.2816c5.7344 0 5.7344 0 5.7344 5.7344v23.1424c0.4096-0.2048 0.4096 5.7344-5.3248 5.7344zM1035.4688 553.5744h-29.0816l5.7344 23.1424v5.7344h-34.816c-5.7344 0-5.7344 0-5.7344-5.7344l-5.7344-23.1424h-98.5088c-5.7344 0-5.7344 0-5.7344-5.7344v-23.1424c0-5.7344 0-5.7344 5.7344-5.7344h92.7744l-52.224-220.3648v-5.7344h34.816c5.7344 0 5.7344 0 5.7344 5.7344l52.224 220.3648h34.816c40.5504 0 69.632-29.0816 69.632-69.632v-52.224c0-40.5504-29.0816-69.632-69.632-69.632h-23.1424c-5.7344 0-5.7344 0-5.7344-5.7344l-5.7344-23.1424c0-5.7344 0-5.7344 5.7344-5.7344h29.0816c57.9584 0 104.2432 34.816 104.2432 98.5088v57.9584c-0.2048 63.6928-40.7552 104.2432-104.448 104.2432z m881.0496-87.04h-197.0176l11.6736 29.0816H1910.784c46.2848 0 81.1008 34.816 81.1008 81.1008s-34.816 81.1008-81.1008 81.1008h-174.08c-46.2848 0-81.1008-34.816-81.1008-81.1008 0-29.0816 17.408-57.9584 40.5504-69.632L1638.1952 373.76s-5.7344-5.7344 5.7344-5.7344H1667.072c5.7344 0 5.7344 0 11.6736 5.7344l23.1424 57.9584h46.2848L1701.888 304.128s0-5.7344 5.7344-5.7344H1736.704c5.7344 0 5.7344 0 11.6736 5.7344l52.224 133.3248h52.224l-52.224-127.5904s0-5.7344 5.7344-5.7344h29.0816c5.7344 0 5.7344 0 11.6736 5.7344l52.224 133.3248h17.408c29.0816 0 46.2848-23.1424 46.2848-46.2848v-5.7344c0-29.0816-17.408-46.2848-46.2848-46.2848h-5.7344c-5.7344 0-5.7344 0-5.7344-5.7344l-5.7344-17.408c0-5.7344 0-5.7344 5.7344-5.7344h23.1424c46.2848 0 75.3664 34.816 75.3664 81.1008V408.576c-11.8784 17.408-40.96 57.9584-87.2448 57.9584z m-226.0992 92.7744H1910.784c5.7344 0 5.7344 0 5.7344 5.7344v23.1424c0 5.7344 0 5.7344-5.7344 5.7344H1690.4192c5.7344 23.1424 29.0816 34.816 46.2848 34.816h156.4672c29.0816 0 52.224-23.1424 52.224-52.224s-23.1424-52.224-52.224-52.224H1736.704c-17.408 0.2048-34.6112 17.6128-46.2848 35.0208z m-168.1408 87.04h-63.6928l-17.408 17.408s-5.7344 5.7344-11.6736 5.7344c-5.7344 0-5.7344 0-11.6736-5.7344l-17.408-17.408h-63.6928c-52.224 0-81.1008-29.0816-81.1008-75.3664v-11.6736c0-5.7344 0-5.7344 5.7344-5.7344h29.0816c5.7344 0 5.7344 0 5.7344 5.7344v5.7344c0 34.816 17.408 46.2848 52.224 46.2848h168.1408c34.816 0 52.224-11.6736 52.224-46.2848v-5.7344c0-5.7344 0-5.7344 5.7344-5.7344H1603.584c5.7344 0 5.7344 0 5.7344 5.7344v11.6736c-5.9392 46.2848-34.816 75.3664-87.04 75.3664z m75.3664-121.856H1261.568c-5.7344 0-5.7344 0-5.7344-5.7344v-23.1424c0-5.7344 0-5.7344 5.7344-5.7344h202.752v-87.04c0-46.2848-29.0816-75.3664-69.632-75.3664h-63.6928c-5.7344 0-5.7344 0-5.7344-5.7344l-5.7344-23.1424c0-5.7344 0-5.7344 5.7344-5.7344h81.1008c57.9584 0 104.2432 40.5504 104.2432 104.2432v92.7744h92.7744c5.7344 0 5.7344 0 5.7344 5.7344l-11.4688 28.8768c5.7344-5.7344 5.7344 0 0 0z m544.9728-104.2432v156.4672c0 5.7344 0 5.7344-5.7344 5.7344h-29.0816s-5.7344 0-5.7344-5.7344v-156.4672l-63.6928-115.9168s0-5.7344 5.7344-5.7344h29.0816c5.7344 0 5.7344 0 5.7344 5.7344l40.5504 75.3664 40.5504-75.3664 5.7344-5.7344h29.0816s5.7344 0 5.7344 5.7344l-57.9584 115.9168zM2165.76 582.4512c0 23.1424-17.408 46.2848-46.2848 46.2848-23.1424 0-46.2848-17.408-46.2848-46.2848v-168.1408c0-5.7344 0-5.7344-5.7344-5.7344H2043.904c-5.7344 0-5.7344 0-5.7344 5.7344v168.1408c0 46.2848 34.816 81.1008 81.1008 81.1008s81.1008-34.816 81.1008-81.1008v-168.1408c0-5.7344 0-5.7344-5.7344-5.7344h-23.1424c-5.7344 0-5.7344 0-5.7344 5.7344v168.1408z m162.2016 0h-23.1424c-5.7344 0-5.7344 0-5.7344-5.7344v-191.2832c0-5.7344-5.7344-17.408-17.408-17.408-5.7344 0-17.408 5.7344-17.408 17.408v191.2832c0 5.7344 0 5.7344-5.7344 5.7344h-23.1424c-5.7344 0-5.7344 0-5.7344-5.7344v-191.2832c0-29.0816 23.1424-52.224 52.224-52.224s52.224 23.1424 52.224 52.224v191.2832c-0.2048 5.7344-6.144 5.7344-6.144 5.7344zM2310.5536 652.0832h-46.2848v11.6736c0 5.7344 0 5.7344-5.7344 5.7344h-23.1424c-5.7344 0-5.7344 0-5.7344-5.7344v-40.5504s0-5.7344 5.7344-5.7344h63.6928c40.5504 0 63.6928-29.0816 63.6928-57.9584V373.76c0-40.5504-29.0816-40.5504-29.0816-40.5504h-5.7344c-5.7344 0-5.7344 0-5.7344-5.7344l-5.7344-17.408c0-5.7344 0-5.7344 5.7344-5.7344h17.408c40.5504 0 63.6928 23.1424 63.6928 69.632v197.0176c-5.7344 40.5504-40.5504 81.1008-92.7744 81.1008zM1145.4464 228.9664H1122.304c-5.7344 0-5.7344 0-5.7344-5.7344v-81.1008c0-17.408-17.408-29.0816-40.5504-29.0816s-40.5504 5.7344-40.5504 29.0816v81.1008s0 5.7344-5.7344 5.7344h-23.1424s-5.7344 0-5.7344-5.7344v-81.1008c0-40.5504 34.816-52.224 69.632-52.224 40.5504 0 69.632 17.408 69.632 52.224l5.3248 86.8352c5.9392-5.7344 0 0 0 0z m220.3648 0h23.1424s5.7344 0 5.7344-5.7344v-127.5904s0-5.7344-5.7344-5.7344h-23.1424s-5.7344 0-5.7344 5.7344c0 17.408 0 104.2432 5.7344 133.3248-5.7344-5.7344 0 0 0 0z m440.5248-104.448c11.6736 0 17.408-5.7344 17.408-17.408s-5.7344-17.408-17.408-17.408-17.408 11.6736-17.408 17.408c0 11.6736 5.7344 17.408 17.408 17.408z m272.384 104.448c-57.9584 0-75.3664-29.0816-75.3664-69.632s23.1424-69.632 75.3664-69.632c57.9584 0 75.3664 34.816 75.3664 69.632 0 40.5504-23.1424 69.632-75.3664 69.632z m0-121.856c-29.0816 0-40.5504 23.1424-40.5504 46.2848 0 29.0816 11.6736 46.2848 40.5504 46.2848 29.0816 0 40.5504-23.1424 40.5504-46.2848s-11.4688-46.2848-40.5504-46.2848zM1980.2112 205.824v17.408s0 5.7344-5.7344 5.7344c-81.1008 11.6736-121.6512-23.1424-121.6512-69.632 0-46.2848 34.816-87.04 121.6512-69.632 0 0 5.7344 0 5.7344 5.7344v17.408c0 5.7344 0 5.7344-5.7344 5.7344-34.816-5.7344-87.04-5.7344-87.04 46.2848 0 40.96 57.9584 40.96 92.7744 40.96-5.7344-5.9392 0 0 0 0z m-765.1328-29.0816v-81.1008s0-5.7344-5.7344-5.7344h-23.1424s-5.7344 0-5.7344 5.7344v127.5904s0 5.7344 5.7344 5.7344h23.1424s5.7344 0 5.7344-5.7344v-5.7344c11.6736 5.7344 23.1424 11.6736 40.5504 11.6736 52.224 0 69.632-29.0816 69.632-52.224v-81.1008s0-5.7344-5.7344-5.7344H1296.384s-5.7344 0-5.7344 5.7344v81.1008c0 29.0816-40.5504 29.0816-40.5504 29.0816 5.5296-0.2048-35.0208-0.2048-35.0208-29.2864z m254.976 0v-81.1008s0-5.7344-5.7344-5.7344h-23.1424s-5.7344 0-5.7344 5.7344v127.5904s0 5.7344 5.7344 5.7344H1464.32c5.7344 0 5.7344 0 5.7344-5.7344v-5.7344c11.6736 5.7344 23.1424 11.6736 40.5504 11.6736 52.224 0 69.632-29.0816 69.632-52.224v-81.1008s0-5.7344-5.7344-5.7344h-23.1424s-5.7344 0-5.7344 5.7344v81.1008c0 29.0816-40.5504 29.0816-40.5504 29.0816s-35.0208-0.2048-35.0208-29.2864z m-591.0528 11.6736c-5.7344 23.1424 52.224 23.1424 81.1008 17.408 0 0 5.7344 0 5.7344 5.7344v17.408s0 5.7344-5.7344 5.7344c-69.632 11.6736-127.5904 5.7344-121.6512-40.5504 5.7344-46.2848 98.5088-23.1424 98.5088-52.224 0-23.1424-57.9584-23.1424-92.7744-11.6736-5.7344 0-5.7344 0-5.7344-5.7344v-17.408s0-5.7344 5.7344-5.7344c40.5504-11.6736 133.3248-17.408 133.3248 34.816-5.9392 52.224-92.7744 28.8768-98.5088 52.224z m1518.592-92.7744c0-5.7344 0-5.7344 0 0l-29.0816-5.7344s-5.7344 0-5.7344 5.7344v87.04c0 11.6736-11.6736 23.1424-29.0816 23.1424s-29.0816-11.6736-29.0816-23.1424v-87.04s0-5.7344-5.7344-5.7344h-23.1424c-5.7344 0-5.7344 0-5.7344 5.7344v87.04c0 11.6736-11.6736 23.1424-29.0816 23.1424s-29.0816-11.6736-29.0816-23.1424v-87.04s0-5.7344-5.7344-5.7344H2183.168s-5.7344 0-5.7344 5.7344v127.5904c0 5.7344 5.7344 5.7344 5.7344 5.7344h17.408c5.7344 0 5.7344-5.7344 5.7344-5.7344 5.7344 5.7344 23.1424 11.6736 34.816 11.6736 17.408 0 34.816-11.6736 46.2848-17.408 11.6736 11.6736 23.1424 17.408 46.2848 17.408 34.816 0 57.9584-17.408 57.9584-40.5504v-98.5088h5.9392z m-649.216 133.3248h-23.1424c-5.7344 0-5.7344-5.7344-5.7344-5.7344-11.6736 5.7344-23.1424 11.6736-40.5504 11.6736-52.224 0-69.632-40.5504-69.632-69.632 0-34.816 17.408-69.632 69.632-69.632 17.408 0 29.0816 5.7344 40.5504 11.6736v-11.6736c0-29.0816-23.1424-34.816-52.224-34.816-17.408 0-29.0816 5.7344-40.5504 5.7344-5.7344 0-5.7344 0-5.7344-5.7344v-17.408c0-5.7344 0-5.7344 5.7344-5.7344 11.6736-5.7344 34.816-5.7344 52.224-5.7344 40.5504 0 75.3664 17.408 75.3664 63.6928l-5.9392 133.3248c5.7344-5.7344 0 0 0 0z m-69.632-115.9168c-29.0816 0-40.5504 23.1424-40.5504 46.2848s11.6736 46.2848 40.5504 46.2848 40.5504-23.1424 40.5504-46.2848c0-28.8768-11.4688-46.2848-40.5504-46.2848zM722.3296 460.8l-63.6928 63.6928v87.04c0 34.816-23.1424 57.9584-57.9584 57.9584h-87.04l-63.6928 63.6928c-23.1424 23.1424-57.9584 23.1424-81.1008 0L305.152 669.4912h-87.04c-34.816 0-57.9584-23.1424-57.9584-57.9584v-87.04l-63.6928-63.6928c-23.1424-23.1424-23.1424-57.9584 0-81.1008l63.6928-63.6928v-87.04c0-29.0816 23.1424-57.9584 57.9584-57.9584H305.152l63.6928-69.632c23.1424-23.1424 57.9584-23.1424 81.1008 0l63.6928 63.6928h87.04c34.816 0 57.9584 23.1424 57.9584 57.9584v92.7744l63.6928 63.6928c23.3472 17.6128 23.3472 58.1632 0 81.3056zM507.904 373.76c-5.7344 46.2848-46.2848 87.04-98.5088 87.04s-92.7744-40.5504-98.5088-87.04c-40.5504 0-75.3664-34.816-75.3664-75.3664 0-40.5504 34.816-75.3664 75.3664-75.3664h191.2832c40.5504 0 75.3664 34.816 75.3664 75.3664 5.7344 40.7552-29.0816 69.632-69.632 75.3664zM490.496 460.8c0-12.9024 10.4448-23.1424 23.1424-23.1424 12.9024 0 23.1424 10.4448 23.1424 23.1424 0 12.9024-10.4448 23.1424-23.1424 23.1424-12.6976 0-23.1424-10.24-23.1424-23.1424zM281.8048 460.8c0-12.9024 10.4448-23.1424 23.1424-23.1424s23.1424 10.4448 23.1424 23.1424c0 12.9024-10.4448 23.1424-23.1424 23.1424-12.6976 0-23.1424-10.24-23.1424-23.1424zM467.3536 373.76h-115.9168c-11.6736 0-23.1424-17.408-5.7344-29.0816l40.5504-29.0816s11.6736-5.7344 23.1424-5.7344c17.408-5.7344 23.1424 5.7344 23.1424 5.7344l40.5504 29.0816c17.408 11.6736 5.9392 29.0816-5.7344 29.0816z"  horiz-adv-x="2496" />

    
    <glyph glyph-name="suningyigouicon" unicode="&#59078;" d="M992.822318 450.809319L894.937706 548.693931v133.516248c0 53.447455-35.631637 89.079092-89.079092 89.079092h-133.516248L574.252975 869.378662C538.621338 904.805519 485.378662 904.805519 449.747025 869.378662l-97.884611-97.884611h-133.516249C164.693931 771.289271 129.062294 735.657634 129.062294 682.414959v-133.516249l-97.884612-97.884611c-35.631637-35.631637-35.631637-89.079092 0-124.710729L129.062294 228.213979v-133.516249c0-44.437156 35.631637-89.079092 89.079092-89.079092h133.516248l97.884612-106.89491c35.631637-35.631637 89.079092-35.631637 124.710729 0l97.884611 97.884611h133.516249c53.447455 0 89.079092 35.631637 89.079092 89.079092v142.526548l97.884611 97.884611c35.836416 26.826117 35.836416 89.079092 0.20478 124.710729zM663.332067 317.293071c-8.805519 71.263274-71.263274 133.516248-151.332067 133.516248s-142.526547-62.252975-151.332067-133.516248c-62.252975 0-115.70043-53.447455-115.70043-115.70043s53.447455-115.70043 115.70043-115.70043h293.858614c62.252975 0 115.70043 53.447455 115.70043 115.70043 8.805519 62.252975-44.641936 106.690131-106.89491 115.70043zM636.710729 450.809319c0-19.658834 15.972803-35.631637 35.631637-35.631637 19.658834 0 35.631637 15.972803 35.631637 35.631637 0 19.658834-15.972803 35.631637-35.631637 35.631637s-35.631637-15.972803-35.631637-35.631637zM316.025997 450.809319c0-19.658834 15.972803-35.631637 35.631637-35.631637 19.658834 0 35.631637 15.972803 35.631637 35.631637 0 19.658834-15.972803 35.631637-35.631637 35.631637s-35.426857-15.972803-35.631637-35.631637zM601.079092 317.293071h-178.158184c-17.815818 0-35.631637-26.621338-8.80552-44.437157l62.252975-44.437156s17.815818-8.805519 35.631637-8.805519c26.621338-8.805519 35.631637 8.805519 35.631637 8.805519l62.252975 44.437156c26.826117 17.611039 9.010299 44.437156-8.80552 44.437157z"  horiz-adv-x="1024" />

    
    <glyph glyph-name="fenqifukuan" unicode="&#58886;" d="M481.12 412.096h-231.68a30.976 30.976 0 0 1-30.912-30.88c0-16.992 13.888-30.912 30.88-30.912h231.68a30.976 30.976 0 0 1 30.912 30.912 30.976 30.976 0 0 1-30.88 30.88z m-30.912-154.464H249.408a30.976 30.976 0 0 1-30.88-30.88c0-16.992 13.888-30.88 30.88-30.88h200.8a30.976 30.976 0 0 1 30.912 30.88 30.976 30.976 0 0 1-30.912 30.88z m247.136 154.464h-46.336a30.976 30.976 0 0 1-30.88-30.88c0-16.992 13.888-30.912 30.88-30.912h46.336a30.976 30.976 0 0 1 30.912 30.912 30.976 30.976 0 0 1-30.912 30.88zM898.144 767.36H125.856c-33.984 0-61.792-27.808-61.792-61.76v-617.856c0-33.984 27.808-61.792 61.76-61.792h772.32c33.984 0 61.792 27.808 61.792 61.76V705.6c0 33.984-27.808 61.792-61.76 61.792zM125.856 705.6h772.288v-123.584H125.856V705.568z m0-617.856V520.224h772.288v-432.48H125.856z"  horiz-adv-x="1024" />

    


  </font>
</defs>
</svg>
